<svg xmlns="http://www.w3.org/2000/svg" xmlns:xlink="http://www.w3.org/1999/xlink" viewBox="0,0,256,256" width="128px" height="128px" fill-rule="nonzero"><g fill="none" fill-rule="nonzero" stroke="none" stroke-width="1" stroke-linecap="butt" stroke-linejoin="miter" stroke-miterlimit="10" stroke-dasharray="" stroke-dashoffset="0" font-family="none" font-weight="none" font-size="none" text-anchor="none" style="mix-blend-mode: normal"><g transform="scale(2,2)"><path d="M86.2,109h-44.4c-9.8,0 -17.8,-8 -17.8,-17.8v-44.4c0,-9.8 8,-17.8 17.8,-17.8h44.4c9.8,0 17.8,8 17.8,17.8v44.4c0,9.8 -8,17.8 -17.8,17.8z" fill="#f49ad9"></path><path d="M24,46.8v11.2h80v-11.2c0,-9.8 -8,-17.8 -17.8,-17.8h-44.4c-9.8,0 -17.8,8 -17.8,17.8z" fill="#ffffff"></path><path d="M86.2,112h-44.4c-11.5,0 -20.8,-9.3 -20.8,-20.8v-44.4c0,-11.5 9.3,-20.8 20.8,-20.8h44.4c11.5,0 20.8,9.3 20.8,20.8v44.4c0,11.5 -9.3,20.8 -20.8,20.8zM41.8,32c-8.2,0 -14.8,6.6 -14.8,14.8v44.4c0,8.1 6.6,14.8 14.8,14.8h44.4c8.1,0 14.8,-6.6 14.8,-14.8v-44.4c0,-8.1 -6.6,-14.8 -14.8,-14.8z" fill="#444b54"></path><path d="M64,54c-8.28427,0 -15,6.71573 -15,15c0,8.28427 6.71573,15 15,15c8.28427,0 15,-6.71573 15,-15c0,-8.28427 -6.71573,-15 -15,-15z" fill="#ffffff"></path><path d="M64,87c-9.9,0 -18,-8.1 -18,-18c0,-1.7 1.3,-3 3,-3c1.7,0 3,1.3 3,3c0,6.6 5.4,12 12,12c6.6,0 12,-5.4 12,-12c0,-6.6 -5.4,-12 -12,-12c-1.7,0 -3,-1.3 -3,-3c0,-1.7 1.3,-3 3,-3c9.9,0 18,8.1 18,18c0,9.9 -8.1,18 -18,18z" fill="#444b54"></path><path d="M53.8,60.9c-0.2,0 -0.4,0 -0.6,-0.1c-0.2,-0.1 -0.4,-0.1 -0.6,-0.2c-0.2,-0.1 -0.4,-0.2 -0.5,-0.3c-0.2,-0.1 -0.3,-0.2 -0.5,-0.4c-0.1,-0.1 -0.3,-0.3 -0.4,-0.5c-0.1,-0.2 -0.2,-0.3 -0.3,-0.5c-0.1,-0.2 -0.1,-0.4 -0.2,-0.6c0,-0.2 -0.1,-0.4 -0.1,-0.6c0,-0.2 0,-0.4 0.1,-0.6c0,-0.2 0.1,-0.4 0.2,-0.6c0.1,-0.2 0.2,-0.4 0.3,-0.5c0.1,-0.2 0.2,-0.3 0.4,-0.5c0.1,-0.1 0.3,-0.3 0.5,-0.4c0.2,-0.1 0.3,-0.2 0.5,-0.3c0.2,-0.1 0.4,-0.1 0.6,-0.2c0.4,-0.1 0.8,-0.1 1.2,0c0.2,0 0.4,0.1 0.6,0.2c0.2,0.1 0.4,0.2 0.5,0.3c0.2,0.1 0.3,0.2 0.4,0.4c0.1,0.1 0.3,0.3 0.4,0.5c0.1,0.2 0.2,0.3 0.3,0.5c0.1,0.2 0.1,0.4 0.2,0.6c0,0.2 0.1,0.4 0.1,0.6c0,0.2 0,0.4 -0.1,0.6c0,0.2 -0.1,0.4 -0.2,0.6c-0.1,0.2 -0.2,0.4 -0.3,0.5c-0.1,0.2 -0.2,0.3 -0.4,0.5c-0.1,0.1 -0.3,0.3 -0.4,0.4c-0.2,0.1 -0.3,0.2 -0.5,0.3c-0.2,0.1 -0.4,0.1 -0.6,0.2c-0.2,0.1 -0.4,0.1 -0.6,0.1zM86,43c-2.20914,0 -4,1.79086 -4,4c0,2.20914 1.79086,4 4,4c2.20914,0 4,-1.79086 4,-4c0,-2.20914 -1.79086,-4 -4,-4zM19,112.3c-1.6,0 -3,-1.3 -3,-3c0,-1.7 1.3,-3 3,-3l90,-0.5v0c1.6,0 3,1.3 3,3c0,1.7 -1.3,3 -3,3l-90,0.5zM124,111.8c-0.8,0 -1.6,-0.3 -2.1,-0.9c-0.1,-0.1 -0.3,-0.3 -0.4,-0.5c-0.1,-0.2 -0.2,-0.3 -0.3,-0.5c-0.1,-0.2 -0.1,-0.4 -0.2,-0.6c0,-0.2 -0.1,-0.4 -0.1,-0.6c0,-0.2 0,-0.4 0.1,-0.6c0,-0.2 0.1,-0.4 0.2,-0.6c0.1,-0.2 0.2,-0.4 0.3,-0.5c0.1,-0.2 0.2,-0.3 0.4,-0.5c0.1,-0.1 0.3,-0.3 0.4,-0.4c0.2,-0.1 0.3,-0.2 0.5,-0.3c0.2,-0.1 0.4,-0.1 0.6,-0.2c0.4,-0.1 0.8,-0.1 1.2,0c0.2,0 0.4,0.1 0.6,0.2c0.2,0.1 0.4,0.2 0.5,0.3c0.2,0.1 0.3,0.2 0.4,0.4c0.6,0.6 0.9,1.3 0.9,2.1c0,0.2 0,0.4 -0.1,0.6c0,0.2 -0.1,0.4 -0.2,0.6c-0.1,0.2 -0.2,0.4 -0.3,0.5c-0.1,0.2 -0.2,0.3 -0.4,0.5c-0.4,0.7 -1.2,1 -2,1z" fill="#444b54"></path></g></g></svg>